<svg width="512" height="512" viewBox="0 0 512 512" xmlns="http://www.w3.org/2000/svg">
  <defs>
    <linearGradient id="iceberg-shadow-color" x1="0%" y1="0%" x2="0%" y2="100%">
      <stop offset="0%" stop-color="#E5F9F7" />
      <stop offset="30%" stop-color="#E5F9F7" />
      <stop offset="100%" stop-color="#003B6F" />
    </linearGradient>
    <g id="iceberg" stroke="#232324">
      <circle cx="256" cy="256" r="200" stroke-width="10" fill="url(#iceberg-shadow-color)" />
      <path d="
         M 56 252
         L 125 252
         L 215 146
         L 295 211
         L 256 176
         L 295 116
         L 415 252
         L 125 252
         L 456 252
         Z
       " stroke="#232324" stroke-width="24" fill="none" />

       <g id="iceberg-shadow" stroke-width="6">
         <line x1="120" y1="300" x2="392" y2="300" />
         <line x1="140" y1="330" x2="370" y2="330" />
         <line x1="160" y1="360" x2="347" y2="360" />
         <line x1="180" y1="390" x2="326" y2="390" />
         <line x1="200" y1="420" x2="302" y2="420" />
       </g>
       <use href="#iceberg-shadow" x="0" y="0"/>
    </g>
  </defs>

  <rect x="48" y="48" width="416" height="416" rx="102" ry="102" fill="#C8D8DF" />
  <use href="#iceberg" transform="translate(256, 256) scale(0.85) translate(-256, -256)" />
</svg>
