<svg width="512" height="512" viewBox="0 0 512 512" xmlns="http://www.w3.org/2000/svg">
  <defs>
    <g id="elephant" stroke="#FFFFFF">
      <path
        d="
          M 364 170
          a 64 64 0 0 1 64 64
          l 0 152
          a 16 16 0 0 1 -16 16
          l -64 0
          a 96 96 0 0 0 -148 0
          l -64 0
          l 0 -168
          a 64 64 0 0 1 64 -64
          Z

          M 270 208
          a 88 88 0 0 1 -96 96
        "
        stroke-width="36" fill="none" />
      <path
        d="
          M 134 268
          l -32 0
          a 32 32 0 0 1 -32 -32
          a 128 128 0 0 1 96 -128
        "
        stroke-width="28" fill="none" />
      <circle cx="226" cy="96" r="24" fill="#FFFFFF" />
      <circle cx="288" cy="92" r="18" fill="#FFFFFF" />
      <circle cx="348" cy="90" r="14" fill="#FFFFFF" />
    </g>
  </defs>

  <rect x="48" y="48" width="416" height="416" rx="102" ry="102" fill="#2196F3" />
  <use href="#elephant" fill="#FFFFFF" transform="translate(256, 256) scale(0.85) translate(-256, -256)" />
</svg>
